<?xml version="1.0" standalone="no"?>
<!DOCTYPE svg PUBLIC "-//W3C//DTD SVG 20010904//EN"
 "http://www.w3.org/TR/2001/REC-SVG-20010904/DTD/svg10.dtd">
<svg version="1.0" xmlns="http://www.w3.org/2000/svg"
 width="300.000000pt" height="294.000000pt" viewBox="0 0 300.000000 294.000000"
 preserveAspectRatio="xMidYMid meet">

<g transform="translate(0.000000,294.000000) scale(0.100000,-0.100000)"
fill="#000000" stroke="none">
<path d="M0 1470 l0 -1470 1500 0 1500 0 0 1470 0 1470 -1500 0 -1500 0 0
-1470z m1459 1246 c39 -21 51 -56 51 -147 0 -76 -2 -82 -29 -110 -23 -23 -39
-29 -70 -29 l-41 0 0 -85 0 -85 -40 0 -40 0 0 235 0 235 70 0 c42 0 82 -6 99
-14z m153 -183 c3 -190 4 -198 23 -198 19 0 20 8 23 198 l2 197 45 0 45 0 0
-197 c0 -179 -2 -201 -20 -230 -24 -40 -78 -57 -133 -42 -62 17 -67 38 -67
269 l0 200 40 0 40 0 2 -197z m282 110 c46 -217 43 -212 40 -55 l-3 142 45 0
44 0 0 -235 0 -235 -48 0 -49 0 -26 123 c-14 67 -28 131 -30 142 -3 11 -5 -44
-6 -122 l-1 -143 -40 0 -40 0 0 235 0 235 48 0 47 0 19 -87z m241 -4 c0 -50 3
-92 7 -95 8 -5 22 41 39 129 l12 57 48 0 48 0 -15 -52 c-9 -29 -24 -80 -34
-114 l-18 -61 34 -114 c18 -63 34 -117 34 -121 0 -5 -20 -8 -45 -8 l-44 0 -16
52 c-8 28 -15 56 -15 62 0 23 -21 86 -29 86 -4 0 -7 -37 -6 -81 3 -113 1 -119
-46 -119 l-39 0 0 235 0 235 43 0 43 0 -1 -91z m361 58 c23 -27 24 -33 24
-203 l0 -176 -29 -29 c-28 -27 -34 -29 -110 -29 l-81 0 0 236 0 236 86 -3 c79
-4 87 -6 110 -32z m214 -7 c0 -39 -1 -40 -35 -40 -34 0 -35 -1 -35 -39 0 -22
-3 -46 -6 -55 -5 -13 1 -16 30 -16 35 0 36 -1 36 -40 0 -38 -1 -40 -32 -40
l-33 0 0 -60 0 -60 38 0 c37 0 37 0 37 -40 l0 -40 -80 0 -80 0 0 235 0 235 80
0 80 0 0 -40z m104 -12 c3 -29 9 -115 12 -190 4 -76 11 -138 16 -138 4 0 8 24
8 53 0 99 13 236 21 231 5 -3 9 0 9 5 0 6 -3 11 -8 11 -4 0 -6 18 -4 40 4 40
4 40 46 40 l41 0 -27 -232 c-14 -128 -27 -234 -27 -235 -1 -2 -29 -3 -64 -3
l-63 0 -23 213 c-13 116 -25 222 -28 235 -5 20 -2 22 40 22 l44 0 7 -52z
m-1665 -683 c28 -90 28 -108 -1 -99 -13 4 -40 8 -60 10 -21 1 -45 5 -55 8 -10
3 -39 10 -65 14 l-46 9 33 -49 c32 -45 51 -87 43 -92 -1 -1 -50 1 -108 4 -58
3 -107 5 -109 3 -2 -1 31 -40 74 -85 57 -61 74 -84 62 -86 -22 -5 -21 -14 5
-48 l23 -29 -25 16 c-14 8 -34 19 -45 23 -21 8 -16 1 73 -95 l34 -36 -31 -11
c-35 -12 -42 -23 -10 -15 19 5 20 4 10 -15 -21 -39 -15 -52 20 -42 20 6 49 5
83 -3 l51 -12 -65 -3 c-36 -2 -69 -7 -75 -13 -5 -5 -17 -29 -27 -52 l-17 -42
-2 55 c-1 30 -1 58 0 63 2 12 -12 8 -44 -13 -16 -11 -34 -20 -39 -20 -24 0 46
132 76 142 19 7 -35 73 -89 112 -24 17 -67 44 -96 59 -57 31 -52 31 71 -6 45
-14 82 -22 82 -19 0 19 -89 117 -142 157 l-63 47 83 -3 c45 -2 82 -2 82 1 0 3
-22 20 -50 38 -27 18 -50 40 -50 48 0 18 3 16 85 -41 36 -26 75 -44 98 -47 20
-2 37 -2 37 0 0 20 -52 79 -93 107 l-52 35 35 0 c19 -1 69 -7 110 -14 41 -8
76 -12 78 -11 1 1 -14 18 -35 37 -21 19 -47 45 -58 58 l-20 23 33 -19 c19 -10
53 -37 76 -60 43 -41 96 -63 96 -39 0 23 -32 121 -51 155 l-20 35 35 -37 c23
-24 42 -59 55 -103z m40 49 c28 -30 58 -68 68 -85 9 -16 20 -29 24 -29 9 0
-17 114 -32 142 -19 36 -3 29 25 -10 25 -36 56 -155 44 -167 -2 -3 -18 0 -34
5 -18 7 -47 36 -76 78 -26 37 -57 79 -69 95 -37 48 -3 29 50 -29z m252 9 c21
-54 27 -125 14 -162 -11 -34 -12 -32 -19 53 -3 49 -9 99 -12 112 -8 33 4 30
17 -3z m-22 -110 c1 -18 -4 -56 -11 -85 -10 -45 -12 -49 -18 -28 -4 14 -11 24
-17 23 -5 -1 -8 9 -5 22 2 14 -8 48 -24 82 -15 32 -30 63 -33 68 -13 29 33
-24 50 -57 11 -21 22 -38 25 -38 3 0 3 33 0 73 l-6 72 19 -50 c11 -27 20 -64
20 -82z m121 15 c0 -40 1 -41 19 -24 19 17 20 17 23 -21 4 -37 4 -38 16 -13
11 22 12 20 9 -28 -1 -28 0 -52 3 -52 3 0 16 16 30 36 31 47 37 29 11 -32 -12
-26 -21 -48 -21 -51 0 -2 20 10 44 27 25 16 47 30 50 30 3 0 -2 -16 -10 -35
-21 -52 -17 -59 21 -35 39 24 43 17 24 -39 -6 -18 -9 -34 -7 -37 3 -2 26 2 52
10 53 16 53 21 -2 -53 l-23 -30 40 -11 c22 -6 52 -8 67 -4 l28 7 -22 -30 c-11
-16 -28 -36 -38 -43 -14 -13 -13 -15 17 -26 l34 -11 -38 -8 c-48 -9 -55 -22
-16 -30 l31 -7 -38 -25 -37 -26 24 -12 24 -13 -28 -13 c-28 -13 -36 -29 -14
-29 7 -1 5 -6 -6 -14 -16 -13 -16 -14 5 -20 13 -3 37 -6 54 -6 26 0 45 -14
109 -80 46 -47 92 -84 112 -91 18 -6 33 -16 33 -23 0 -7 19 -21 43 -30 24 -9
62 -36 86 -60 l43 -44 -23 -31 c-12 -17 -27 -31 -33 -31 -5 0 3 -14 19 -30
l30 -31 -39 16 c-22 9 -50 24 -64 33 l-25 16 41 14 c22 7 42 21 45 31 5 21
-35 56 -100 90 -23 11 -45 25 -48 31 -4 6 -24 18 -46 27 -21 8 -39 18 -39 22
0 3 -27 34 -59 69 -54 57 -65 64 -112 71 -54 9 -79 29 -79 63 0 10 5 18 11 18
5 0 8 4 4 9 -3 5 -1 12 5 16 6 4 4 15 -6 31 -14 20 -14 23 -2 19 21 -8 47 23
29 34 -10 7 -11 13 -1 31 8 15 8 20 1 16 -26 -17 -8 15 25 42 l36 30 -53 6
c-30 3 -59 6 -66 7 -14 3 -9 14 20 47 25 27 18 28 -33 2 l-39 -20 9 29 c4 15
13 38 19 50 14 26 10 26 -39 2 l-39 -19 15 37 c8 20 19 40 25 46 24 24 5 23
-33 -2 -49 -32 -73 -40 -66 -21 18 46 20 60 8 53 -9 -6 -11 3 -8 34 4 46 1 49
-18 24 -11 -15 -14 -15 -14 -3 -1 8 -15 -12 -31 -45 -16 -33 -27 -52 -24 -42
3 10 8 44 12 75 5 48 4 55 -8 45 -12 -9 -14 -4 -15 33 -1 42 0 44 18 28 17
-16 18 -15 18 24 0 23 5 42 10 42 6 0 10 -19 10 -42z m-200 -144 c0 -8 -4 -14
-10 -14 -5 0 -10 9 -10 21 0 11 5 17 10 14 6 -3 10 -13 10 -21z m155 -3 c-3
-12 -11 -19 -16 -16 -5 4 -5 14 2 26 13 26 23 18 14 -10z m46 -8 c-12 -20 -14
-14 -5 12 4 9 9 14 11 11 3 -2 0 -13 -6 -23z m26 -5 c-3 -8 -6 -5 -6 6 -1 11
2 17 5 13 3 -3 4 -12 1 -19z m-340 -20 c-3 -8 -6 -5 -6 6 -1 11 2 17 5 13 3
-3 4 -12 1 -19z m100 -40 c-2 -13 -4 -5 -4 17 -1 22 1 32 4 23 2 -10 2 -28 0
-40z m-245 -93 l22 -30 -25 22 c-13 12 -32 37 -42 55 l-19 33 21 -25 c12 -14
31 -38 43 -55z m538 61 c0 -2 -8 -10 -17 -17 -16 -13 -17 -12 -4 4 13 16 21
21 21 13z m61 -49 c-10 -9 -11 -8 -5 6 3 10 9 15 12 12 3 -3 0 -11 -7 -18z
m-291 -112 c-8 -9 -9 -15 -2 -15 6 0 14 5 17 10 3 6 11 10 16 10 6 0 7 -4 4
-10 -9 -15 2 -12 33 7 26 17 27 17 12 -1 -14 -18 -13 -18 17 -12 36 8 76 -1
68 -14 -3 -5 8 -5 25 0 17 5 28 5 26 1 -3 -5 6 -13 19 -19 14 -7 25 -16 25
-22 0 -5 6 -10 14 -10 23 0 29 -33 10 -47 -12 -9 -14 -13 -4 -13 7 0 10 -3 6
-7 -4 -5 -15 1 -23 12 -15 19 -15 19 -10 -5 6 -24 5 -24 -8 -6 -15 20 -20 10
-9 -18 5 -12 10 -13 32 -3 15 6 30 16 34 22 5 6 8 3 8 -6 0 -10 -11 -20 -27
-24 -22 -5 -24 -8 -12 -16 10 -7 6 -9 -16 -5 -16 3 -37 1 -45 -4 -11 -8 -8 -9
13 -4 24 6 28 4 25 -11 -1 -10 -19 -29 -37 -44 -19 -14 -32 -21 -28 -14 5 7 1
9 -12 6 -15 -4 -18 0 -16 22 2 16 -1 25 -8 22 -7 -2 -11 -15 -10 -28 l3 -24
-21 25 -21 25 15 -25 c8 -14 20 -24 26 -23 6 2 8 -4 5 -12 -4 -8 -11 -16 -18
-16 -46 -5 -71 -9 -84 -14 -10 -4 -12 0 -8 11 6 15 4 15 -10 3 -10 -8 -18 -12
-18 -10 -2 8 -81 -11 -95 -22 -12 -10 -13 -9 -7 3 4 8 -5 2 -20 -15 -15 -16
-31 -29 -36 -28 -4 2 -8 -2 -8 -7 0 -23 -62 -9 -101 22 -31 25 -39 38 -38 62
l1 31 8 -33 c11 -48 16 -48 24 -1 9 53 17 68 26 43 6 -15 10 -11 19 22 13 48
91 153 130 174 14 8 42 27 61 42 39 31 48 35 30 13z m-341 -224 c-21 -28 -41
-129 -23 -118 5 3 9 -5 9 -18 0 -13 -5 -21 -12 -18 -6 3 -9 11 -6 19 8 21 -5
17 -17 -6 -9 -16 -7 -35 5 -78 24 -84 50 -120 93 -132 20 -5 42 -13 48 -17 6
-5 14 -44 18 -89 6 -73 4 -82 -14 -99 -11 -10 -20 -26 -20 -37 0 -10 -9 -27
-20 -38 -12 -12 -20 -33 -20 -55 0 -25 -5 -35 -15 -35 -8 0 -24 -14 -34 -31
-10 -17 -34 -38 -52 -47 -38 -19 -47 -47 -25 -77 15 -19 15 -18 5 13 -10 28
-9 35 7 47 30 23 49 18 23 -6 l-24 -20 25 6 c18 5 21 4 11 -3 -11 -8 -2 -25
49 -84 35 -40 66 -73 69 -73 4 0 22 -13 41 -28 24 -20 27 -25 10 -16 -14 7
-28 12 -32 11 -4 -1 -44 38 -89 86 -82 87 -86 69 -5 -27 39 -45 39 -45 6 -16
-19 17 -40 37 -47 45 -17 21 -16 5 2 -30 9 -17 16 -33 17 -37 3 -12 65 -55
183 -126 84 -50 113 -63 129 -57 12 4 55 11 96 15 105 10 263 44 272 58 6 9 8
8 9 -3 1 -8 5 1 9 20 7 33 7 32 9 -16 1 -35 -4 -56 -14 -64 -17 -14 -20 -50
-4 -50 5 0 8 4 5 9 -3 4 1 16 8 26 12 17 13 17 19 1 5 -11 -2 -25 -18 -40 -14
-13 -25 -31 -25 -40 0 -9 -4 -16 -10 -16 -5 0 -7 20 -3 49 3 26 2 51 -3 53 -5
3 -49 -1 -99 -8 -49 -7 -118 -13 -153 -13 -36 -1 -76 -8 -93 -16 l-30 -16
-202 135 c-254 170 -243 161 -227 181 7 8 19 15 26 15 11 0 13 12 8 54 l-7 55
46 27 c45 28 65 53 103 135 l21 45 -31 -4 c-29 -4 -28 -3 19 29 36 25 50 40
49 57 -4 126 -2 120 -33 127 -49 11 -77 46 -105 134 -30 93 -30 99 -15 138 6
15 12 42 14 60 2 36 19 61 50 73 34 14 36 11 14 -19z m20 -18 c-5 -14 -7 -40
-3 -57 6 -30 5 -30 -10 -11 -20 26 -20 40 0 70 21 32 26 32 13 -2z m665 1 c25
-25 29 -59 11 -94 -19 -37 -24 -35 -35 14 -8 37 -3 45 18 24 8 -8 8 -17 1 -32
-10 -20 -10 -20 5 -2 20 25 20 35 -1 58 -23 25 -36 23 -61 -12 -18 -23 -20
-34 -12 -55 6 -15 17 -25 30 -25 11 0 20 -4 20 -10 0 -5 -6 -7 -14 -4 -8 3
-16 -2 -19 -13 -3 -13 -5 -12 -6 6 -1 24 -1 24 -16 5 -8 -10 -15 -27 -15 -36
0 -10 -4 -18 -9 -18 -15 0 -22 -33 -9 -42 8 -5 -1 -8 -24 -8 -27 0 -38 4 -38
14 0 20 17 29 23 14 2 -7 14 9 26 36 15 34 20 59 15 82 -7 38 -15 42 -34 18
-8 -8 -23 -20 -34 -26 -12 -6 -3 5 19 25 22 19 42 31 46 26 3 -5 23 9 44 31
44 45 47 46 69 24z m150 -75 c5 -4 -2 -5 -15 -2 -23 6 -22 5 9 -31 18 -21 35
-51 39 -67 3 -16 12 -34 19 -40 15 -13 19 -34 5 -25 -5 4 -7 -3 -4 -14 3 -11
10 -20 15 -20 5 0 6 5 2 12 -4 6 -3 8 4 5 10 -7 42 -91 42 -111 -1 -6 -10 10
-22 37 -11 26 -25 47 -29 47 -14 0 2 -54 18 -63 7 -4 13 -16 12 -25 0 -14 -2
-13 -9 3 -8 18 -9 17 -9 -7 -1 -16 4 -28 12 -28 6 0 -1 -8 -18 -19 -37 -23
-41 -20 -20 12 11 18 14 36 9 66 -4 23 -10 44 -14 46 -5 3 -6 15 -3 28 4 18 3
19 -6 7 -13 -18 -14 -9 -2 22 6 16 5 29 -5 42 -7 11 -11 23 -8 27 3 5 0 9 -6
9 -6 0 -9 4 -6 9 3 5 -6 16 -19 25 -14 9 -23 21 -20 25 3 5 -13 16 -35 25 -22
9 -40 18 -40 21 0 7 94 -7 104 -16z m-382 -26 c-4 -19 -7 -23 -11 -12 -4 11
-14 13 -36 8 -23 -5 -25 -7 -7 -8 18 -1 22 -7 22 -33 0 -125 -58 -157 -171
-97 -33 18 -58 34 -56 36 2 1 28 -10 58 -27 53 -29 102 -38 127 -22 23 15 45
132 25 132 -16 0 -195 -50 -212 -59 -13 -8 -18 -6 -18 5 0 24 57 48 112 47 29
0 42 2 31 6 -13 5 -2 11 40 20 33 7 66 17 74 22 24 14 28 11 22 -18z m35 -70
c-3 -10 -5 -2 -5 17 0 19 2 27 5 18 2 -10 2 -26 0 -35z m463 -42 c0 -9 12 -34
27 -56 15 -22 20 -34 11 -27 -22 18 -31 -9 -12 -36 8 -12 10 -23 5 -26 -5 -3
-14 8 -20 26 -14 40 -14 61 0 52 7 -4 10 -3 7 2 -2 5 -14 31 -27 59 -12 27
-25 52 -29 55 -4 3 -13 14 -21 25 -7 11 3 2 23 -19 20 -22 36 -47 36 -55z
m-513 32 c-3 -10 -5 -2 -5 17 0 19 2 27 5 18 2 -10 2 -26 0 -35z m-414 22 c14
4 17 3 9 -2 -7 -6 7 -10 40 -12 87 -4 88 -4 76 -18 -6 -7 -15 -10 -22 -6 -14
9 -30 12 -87 18 l-47 4 15 -29 c8 -16 15 -46 17 -67 2 -32 6 -38 24 -37 16 0
20 -2 12 -10 -25 -25 -84 59 -97 139 -6 36 -5 37 16 26 12 -7 32 -9 44 -6z
m507 1 c0 -2 -8 -10 -17 -17 -16 -13 -17 -12 -4 4 13 16 21 21 21 13z m95 -25
c-6 -5 -25 10 -25 20 0 5 6 4 14 -3 8 -7 12 -15 11 -17z m32 -6 c-4 -8 -12
-15 -19 -14 -10 0 -10 2 0 6 6 2 12 12 12 21 0 8 3 13 6 9 4 -3 4 -13 1 -22z
m-38 -92 c1 10 6 15 11 12 6 -3 10 -51 10 -108 0 -89 -3 -107 -24 -141 l-23
-39 4 59 c2 32 8 75 13 94 15 53 13 69 -6 45 -15 -19 -16 -18 -10 18 4 20 3
37 -1 37 -4 0 -23 -27 -41 -60 -18 -33 -37 -58 -41 -55 -5 2 -8 -1 -7 -8 0 -6
-3 -13 -7 -14 -5 -1 -27 -27 -50 -57 -30 -39 -52 -59 -77 -66 -56 -16 -74 -12
-93 19 -22 37 -22 36 11 36 15 1 38 4 51 9 15 5 21 5 17 -2 -3 -6 -20 -13 -36
-17 -31 -7 -38 -19 -18 -31 6 -4 8 -3 5 3 -3 5 9 15 28 21 18 7 39 19 45 28
11 12 10 13 -4 8 -24 -9 -19 14 7 27 43 22 77 61 66 75 -6 7 -8 18 -4 24 10
16 25 1 18 -18 -6 -14 -4 -15 9 -5 8 7 18 10 21 7 10 -11 45 57 40 77 -5 17 5
24 30 20 4 0 7 3 7 8 0 20 35 16 42 -4 5 -17 6 -18 7 -2z m531 -48 c21 -22 22
-28 10 -35 -21 -13 -81 -30 -105 -29 -11 0 2 6 29 13 80 22 79 34 -6 99 -17
12 -13 12 13 -3 19 -11 46 -31 59 -45z m-922 -6 c-11 -7 -5 -12 26 -23 13 -4
17 -2 13 8 -4 9 0 12 13 9 15 -4 24 -16 48 -65 2 -5 -3 -8 -12 -8 -8 0 -17 10
-19 23 -3 15 -4 14 -2 -5 2 -33 -15 -42 -43 -22 -17 12 -20 12 -18 -3 2 -23
-32 -25 -45 -2 -12 22 -4 39 17 39 20 0 14 32 -6 37 -13 4 -13 3 0 -6 23 -16
6 -23 -23 -10 -34 15 -39 32 -20 56 16 20 17 20 48 -1 18 -12 28 -24 23 -27z
m459 -74 c2 -23 -2 -57 -12 -80 -10 -25 -13 -30 -10 -12 3 16 1 27 -5 27 -6 0
-8 5 -5 10 4 6 7 45 7 88 1 67 2 72 10 42 6 -19 12 -53 15 -75z m-210 63 c-3
-7 -5 -2 -5 12 0 14 2 19 5 13 2 -7 2 -19 0 -25z m-96 1 c31 -22 30 -39 -2
-39 -10 0 -19 -4 -19 -10 0 -21 -16 -9 -27 21 -10 27 -10 30 4 25 11 -4 14 -2
9 9 -7 20 0 19 35 -6z m-246 -49 c-4 -16 -3 -35 0 -41 4 -6 8 -36 9 -67 1 -32
6 -64 11 -72 7 -12 6 -13 -7 -3 -23 20 -34 213 -11 213 2 0 2 -13 -2 -30z
m276 -32 c-37 -33 -51 -35 -51 -7 0 16 5 20 18 17 12 -3 24 2 31 14 6 10 17
16 23 12 7 -5 0 -17 -21 -36z m176 20 c-3 -8 -6 -5 -6 6 -1 11 2 17 5 13 3 -3
4 -12 1 -19z m426 0 c-13 -6 -23 -14 -23 -18 0 -5 -8 -11 -17 -14 -13 -5 -11
0 6 18 14 15 32 26 40 25 11 0 9 -4 -6 -11z m-64 -25 c-6 -15 -15 -33 -20 -39
-5 -6 -7 -31 -4 -55 l5 -44 -14 46 c-7 26 -17 53 -22 60 -7 12 -5 12 9 0 19
-15 23 -1 5 17 -9 9 -8 12 4 12 8 0 21 7 28 15 18 22 21 18 9 -12z m214 -38
c46 -35 72 -62 72 -75 0 -11 24 -38 60 -68 43 -35 60 -55 60 -72 0 -19 11 -31
42 -48 32 -17 42 -30 47 -57 6 -29 12 -35 41 -41 18 -3 43 -3 54 1 32 10 25
-11 -20 -60 -28 -31 -62 -53 -114 -74 -73 -31 -372 -130 -451 -151 -33 -8 -44
-17 -55 -42 l-13 -31 -9 26 c-15 45 -63 33 -73 -19 -7 -38 -24 -36 -24 3 0 24
-2 25 -38 19 -37 -5 -39 -5 -39 23 0 27 4 30 43 36 38 5 43 9 48 39 4 19 16
46 27 60 21 27 14 36 -11 14 -7 -7 8 14 34 47 26 33 64 81 84 107 20 26 43 47
50 47 7 1 11 5 8 9 -3 5 8 28 25 50 34 46 49 57 23 17 -28 -43 -8 -39 22 4 16
22 35 41 42 41 14 0 -58 -99 -73 -99 -13 -1 -65 -59 -65 -73 0 -5 -4 -7 -9 -4
-13 8 -73 -63 -65 -76 4 -7 2 -8 -4 -4 -12 7 -16 -4 -13 -35 1 -9 -5 -19 -14
-23 -10 -3 -14 -13 -11 -23 3 -10 1 -25 -5 -33 -8 -12 -9 -9 -4 10 5 19 4 21
-4 9 -6 -9 -7 -28 -2 -45 7 -27 8 -28 19 -9 10 18 12 16 13 -15 1 -20 3 -26 6
-15 7 36 26 65 41 65 9 0 12 -6 8 -18 -4 -9 5 -2 19 16 15 17 32 32 39 32 17
0 48 35 39 43 -3 4 -1 7 5 7 7 0 12 -3 12 -7 0 -9 -37 -56 -72 -91 l-23 -23
40 6 c46 8 328 98 391 125 37 16 41 22 39 47 -2 15 -9 42 -16 60 l-13 31 -49
-24 c-27 -14 -46 -21 -42 -15 7 12 48 35 82 45 19 6 25 1 38 -30 8 -20 12 -40
9 -45 -3 -5 -2 -18 1 -29 6 -20 7 -20 46 2 45 25 50 38 15 38 -31 0 -52 21
-61 59 -4 21 -17 33 -46 47 -46 20 -69 52 -48 65 15 9 13 11 -78 75 -43 31
-51 40 -43 55 11 20 3 27 -95 89 -59 38 -65 46 -37 53 9 3 18 5 20 6 1 0 35
-24 75 -54z m-586 23 c-3 -8 -6 -5 -6 6 -1 11 2 17 5 13 3 -3 4 -12 1 -19z
m160 -10 c-3 -7 -5 -2 -5 12 0 14 2 19 5 13 2 -7 2 -19 0 -25z m-384 7 c7 -16
-8 -29 -23 -20 -15 9 -12 35 4 35 8 0 16 -7 19 -15z m-39 -11 c8 -21 8 -21
-36 -28 -35 -5 -38 -4 -37 17 0 20 1 21 8 3 7 -19 8 -19 13 2 7 26 43 30 52 6z
m-91 -14 c3 -11 3 -20 1 -20 -2 0 -8 9 -14 20 -6 11 -7 20 -2 20 6 0 12 -9 15
-20z m602 -26 c-47 -43 -29 -42 25 1 l25 20 -17 -21 c-10 -11 -16 -30 -13 -42
2 -13 0 -20 -6 -17 -5 4 -6 11 -3 17 4 6 2 8 -4 5 -5 -4 -8 -16 -5 -27 6 -23
-13 -50 -35 -50 -12 0 -12 4 4 22 14 17 15 20 2 9 -9 -7 -22 -10 -27 -7 -6 4
-6 -5 0 -26 15 -55 9 -56 -11 -3 l-18 50 56 56 c32 31 62 57 67 57 6 1 -12
-19 -40 -44z m265 11 c7 -9 8 -15 2 -15 -5 0 -12 7 -16 15 -3 8 -4 15 -2 15 2
0 9 -7 16 -15z m90 -68 c-1 -7 -12 -25 -26 -42 -19 -22 -23 -24 -15 -7 7 12 8
22 4 22 -4 0 1 6 12 13 11 9 15 19 10 27 -5 9 -4 11 3 6 7 -4 12 -13 12 -19z
m-1070 -12 c-7 -9 -15 -13 -18 -10 -3 2 1 11 8 20 7 9 15 13 18 10 3 -2 -1
-11 -8 -20z m33 -53 c10 -13 20 -62 12 -62 -11 0 -35 62 -34 87 1 21 3 23 6 8
3 -11 10 -26 16 -33z m204 32 c-3 -3 -12 -4 -19 -1 -8 3 -5 6 6 6 11 1 17 -2
13 -5z m363 -9 c-10 -12 -10 -15 1 -15 9 -1 4 -9 -11 -22 -14 -11 -24 -25 -22
-30 1 -5 -2 -7 -8 -3 -5 3 -10 1 -10 -5 0 -31 -174 -89 -228 -75 l-27 7 25 13
c32 18 54 19 44 3 -4 -7 1 -6 12 3 10 8 40 24 67 33 26 10 73 37 105 61 63 48
71 52 52 30z m281 -3 c-5 -10 -63 -70 -129 -134 -111 -108 -176 -157 -189
-144 -3 3 6 11 21 17 15 7 22 15 17 18 -6 4 35 40 90 81 55 41 121 99 146 128
46 54 61 65 44 34z m-771 -38 c0 -2 -9 -2 -20 -1 -10 1 -17 3 -15 6 3 2 -3 13
-12 24 -15 17 -12 16 15 -3 17 -13 32 -25 32 -26z m1021 0 c33 -25 57 -49 54
-54 -6 -10 14 -70 23 -69 18 3 35 -2 29 -7 -3 -4 -24 -7 -45 -8 -29 -2 -39 1
-35 11 3 7 9 11 13 8 5 -3 6 12 3 32 -4 27 -16 47 -41 68 -20 17 -45 38 -57
47 -44 37 0 15 56 -28z m-131 32 c0 -2 -8 -10 -17 -17 -16 -13 -17 -12 -4 4
13 16 21 21 21 13z m-1023 -13 c-11 -3 -16 -11 -13 -19 3 -8 1 -14 -4 -14 -11
0 -13 23 -3 33 3 4 13 6 22 6 12 -1 12 -2 -2 -6z m993 -27 c0 -2 -8 -10 -17
-17 -16 -13 -17 -12 -4 4 13 16 21 21 21 13z m-955 -106 c25 -49 43 -90 40
-90 -3 0 -25 39 -49 88 -25 48 -45 79 -45 70 -1 -9 -6 -20 -13 -24 -6 -4 -9
-3 -6 2 3 5 8 17 11 27 4 9 9 17 12 17 2 0 25 -40 50 -90z m1042 45 c-15 -14
-22 -25 -15 -25 7 0 2 -7 -10 -16 -12 -8 -30 -14 -39 -12 -12 2 -3 14 32 40
57 43 73 49 32 13z m-1119 -22 c-15 -4 -12 -11 16 -51 31 -45 50 -82 41 -82
-2 0 -11 15 -20 34 -18 37 -51 76 -65 76 -5 0 -12 -5 -16 -12 -4 -6 -3 -8 4
-4 9 5 25 -22 27 -47 0 -4 6 -11 13 -16 8 -5 13 -11 12 -15 -2 -4 9 -25 23
-47 17 -25 22 -41 15 -45 -7 -4 -8 -2 -4 5 4 6 0 14 -8 17 -20 8 -78 113 -69
127 3 6 1 7 -6 3 -16 -11 -24 19 -11 43 7 14 20 21 38 20 16 -1 20 -3 10 -6z
m1202 -26 c-1 -20 -2 -20 -11 -4 -6 10 -15 14 -22 10 -7 -4 -6 0 2 10 16 21
31 13 31 -16z m-1000 -52 c0 -3 -10 -3 -22 -1 -13 3 -26 5 -30 5 -4 1 -12 10
-18 22 l-11 20 40 -21 c23 -11 41 -23 41 -25z m1064 5 c-17 -17 -74 -24 -74
-10 0 8 3 11 6 8 3 -3 17 -2 32 2 38 12 48 12 36 0z m-1110 -71 c-2 -4 3 -10
12 -13 12 -5 15 -2 10 10 -4 12 1 10 20 -5 29 -23 60 -29 48 -9 -4 6 -3 8 2 5
8 -5 156 21 216 38 18 5 20 4 8 -4 -8 -6 -23 -11 -32 -11 -10 0 -18 -4 -18 -9
0 -12 -87 -44 -103 -38 -6 3 -2 6 10 6 12 1 25 5 28 11 7 11 -45 3 -85 -13
-44 -18 -81 -19 -105 -3 -26 17 -59 66 -34 51 9 -6 10 -3 6 8 -17 42 -17 49 1
17 11 -19 18 -38 16 -41z m124 40 c42 -16 22 -18 -23 -2 -25 8 -45 17 -45 20
0 4 25 -2 68 -18z m1037 -8 c-7 -12 -45 -34 -45 -27 0 3 10 14 22 26 22 20 36
21 23 1z m-95 -12 c0 -5 -4 -8 -9 -5 -5 3 -14 -1 -21 -9 -6 -8 -28 -19 -48
-25 -34 -11 -95 -36 -116 -48 -5 -3 -7 1 -5 7 3 7 42 27 88 46 46 19 86 37 89
40 9 9 22 6 22 -6z m-637 -38 c-13 -11 -23 -23 -23 -28 0 -11 -198 -108 -206
-101 -3 3 9 11 26 17 17 6 29 15 25 20 -5 10 16 18 58 25 21 3 35 16 16 16
-16 0 8 18 66 49 49 26 68 27 38 2z m807 9 c0 -5 -4 -10 -10 -10 -5 0 -10 5
-10 10 0 6 5 10 10 10 6 0 10 -4 10 -10z m-1093 -36 c-3 -3 -12 -4 -19 -1 -8
3 -5 6 6 6 11 1 17 -2 13 -5z m652 -48 c-2 -2 -15 -9 -29 -15 -24 -11 -24 -11
-6 3 16 13 49 24 35 12z m-616 -63 c-7 -2 -21 -2 -30 0 -10 3 -4 5 12 5 17 0
24 -2 18 -5z m394 -45 c-3 -7 -5 -2 -5 12 0 14 2 19 5 13 2 -7 2 -19 0 -25z
m-357 -22 c0 -2 -7 -7 -16 -10 -8 -3 -12 -2 -9 4 6 10 25 14 25 6z m-85 -26
c-3 -5 0 -10 7 -10 8 0 6 -5 -5 -11 -27 -16 -43 -6 -23 14 19 19 31 23 21 7z"/>
<path d="M1439 2688 c0 -7 -2 -21 -4 -30 -2 -10 1 -20 6 -24 5 -3 10 -2 10 3
6 35 5 54 -2 59 -5 3 -9 -1 -10 -8z"/>
<path d="M1370 2574 c0 -72 1 -75 23 -72 20 3 22 9 25 76 3 71 3 72 -23 72
-25 0 -25 -1 -25 -76z"/>
<path d="M1320 2599 c1 -20 27 -52 34 -41 3 5 -3 20 -14 32 -13 15 -20 18 -20
9z"/>
<path d="M1675 2510 c-3 -5 -1 -10 4 -10 6 0 11 5 11 10 0 6 -2 10 -4 10 -3 0
-8 -4 -11 -10z"/>
<path d="M1875 2590 c3 -5 8 -10 11 -10 2 0 4 5 4 10 0 6 -5 10 -11 10 -5 0
-7 -4 -4 -10z"/>
<path d="M1963 2586 c21 -16 22 -26 3 -26 -20 0 -27 -13 -14 -30 8 -12 9 -12
4 3 -3 11 0 17 9 17 8 0 15 -6 15 -12 0 -9 3 -9 9 1 12 19 -8 61 -28 61 -14
-1 -14 -2 2 -14z"/>
<path d="M1987 2433 c-10 -9 -9 -23 1 -23 5 0 9 7 9 15 0 17 -1 18 -10 8z"/>
<path d="M1966 2305 c-3 -8 -1 -15 4 -15 6 0 10 7 10 15 0 8 -2 15 -4 15 -2 0
-6 -7 -10 -15z"/>
<path d="M2221 2671 c-9 -6 -6 -8 13 -8 14 0 23 3 20 8 -7 11 -15 11 -33 0z"/>
<path d="M2390 2495 l0 -156 23 3 c22 3 22 5 22 153 0 148 0 150 -22 153 l-23
3 0 -156z"/>
<path d="M2585 2690 c3 -5 8 -10 11 -10 2 0 4 5 4 10 0 6 -5 10 -11 10 -5 0
-7 -4 -4 -10z"/>
<path d="M2570 2580 c-6 -11 -7 -20 -2 -20 5 0 8 -11 7 -24 -3 -24 8 -28 33
-13 19 12 14 26 -7 20 -17 -4 -19 -1 -16 26 5 36 0 39 -15 11z"/>
<path d="M2600 2480 c-13 -9 -13 -10 0 -10 12 0 12 -2 2 -9 -11 -7 -11 -9 0
-14 10 -3 14 3 14 19 0 13 0 24 0 24 -1 0 -8 -5 -16 -10z"/>
<path d="M2580 2380 c0 -5 5 -10 11 -10 5 0 7 5 4 10 -3 6 -8 10 -11 10 -2 0
-4 -4 -4 -10z"/>
<path d="M2638 2313 c10 -4 10 -8 0 -21 -12 -13 -10 -14 10 -3 12 6 22 15 22
19 0 4 -10 8 -22 9 -13 0 -17 -1 -10 -4z"/>
<path d="M2885 2690 c-3 -5 -1 -10 4 -10 6 0 11 5 11 10 0 6 -2 10 -4 10 -3 0
-8 -4 -11 -10z"/>
<path d="M2764 2575 c11 -25 26 -33 26 -14 0 5 5 7 10 4 6 -3 10 -4 10 -1 0 3
-13 12 -29 20 -29 15 -29 15 -17 -9z"/>
<path d="M1391 1864 c0 -11 3 -14 6 -6 3 7 2 16 -1 19 -3 4 -6 -2 -5 -13z"/>
<path d="M1340 1480 c-9 -6 -10 -10 -3 -10 6 0 15 5 18 10 8 12 4 12 -15 0z"/>
<path d="M1564 1414 c-18 -14 -18 -15 4 -4 12 6 22 13 22 15 0 8 -5 6 -26 -11z"/>
<path d="M1570 1380 c-9 -6 -10 -10 -3 -10 6 0 15 5 18 10 8 12 4 12 -15 0z"/>
<path d="M955 394 c-20 -15 -19 -16 15 -44 43 -36 56 -38 35 -6 -9 14 -15 32
-13 42 4 23 -13 27 -37 8z"/>
<path d="M1705 149 c-4 -6 -5 -12 -2 -15 2 -3 7 2 10 11 7 17 1 20 -8 4z"/>
<path d="M1398 1183 c6 -2 18 -2 25 0 6 3 1 5 -13 5 -14 0 -19 -2 -12 -5z"/>
<path d="M1318 1163 c7 -3 16 -2 19 1 4 3 -2 6 -13 5 -11 0 -14 -3 -6 -6z"/>
<path d="M1250 1145 c-33 -19 -21 -19 21 0 19 8 27 14 19 14 -8 0 -26 -6 -40
-14z"/>
<path d="M1020 1132 c0 -16 41 -114 46 -109 2 2 -7 30 -21 63 -13 32 -24 53
-25 46z"/>
<path d="M1575 930 c-9 -16 -13 -30 -11 -30 3 0 12 14 21 30 9 17 13 30 11 30
-3 0 -12 -13 -21 -30z"/>
<path d="M1510 888 l-23 -33 28 27 c16 15 26 30 23 33 -3 4 -16 -9 -28 -27z"/>
<path d="M1715 666 c-16 -13 -61 -39 -100 -59 -38 -20 -63 -36 -55 -36 21 -1
151 73 174 98 25 27 18 26 -19 -3z"/>
<path d="M1806 495 c-11 -8 -18 -17 -15 -19 2 -3 15 4 29 14 14 11 21 20 15
19 -5 0 -19 -6 -29 -14z"/>
</g>
</svg>
