<?xml version="1.0" standalone="no"?>
<!DOCTYPE svg PUBLIC "-//W3C//DTD SVG 20010904//EN"
 "http://www.w3.org/TR/2001/REC-SVG-20010904/DTD/svg10.dtd">
<svg version="1.0" xmlns="http://www.w3.org/2000/svg"
 width="250.000000pt" height="244.000000pt" viewBox="0 0 250.000000 244.000000"
 preserveAspectRatio="xMidYMid meet">

<g transform="translate(0.000000,244.000000) scale(0.100000,-0.100000)"
fill="#000000" stroke="none">
<path d="M0 1220 l0 -1220 1250 0 1250 0 0 1220 0 1220 -1250 0 -1250 0 0
-1220z m178 1080 c8 0 12 -23 12 -80 0 -73 2 -80 20 -80 18 0 20 7 20 79 l0
79 35 4 35 4 0 -198 0 -198 -35 0 -35 0 0 85 c0 78 -2 85 -20 85 -17 0 -19 -8
-22 -82 l-3 -83 -32 -3 -33 -3 0 202 0 201 23 -6 c12 -3 28 -6 35 -6z m220
-194 l2 -197 -37 3 -37 3 -1 190 c-1 105 1 194 3 198 2 4 18 6 35 4 l32 -3 3
-198z m167 3 l0 -194 -34 0 -34 0 -1 193 c-1 107 1 196 3 198 3 3 19 3 35 1
l31 -3 0 -195z m425 -6 l0 -194 -32 3 -33 3 -5 160 -5 160 -13 -154 c-7 -85
-15 -158 -18 -163 -3 -4 -23 -8 -44 -8 -47 0 -47 -1 -56 150 -11 179 -22 183
-23 8 l-1 -158 -35 0 -35 0 0 195 0 195 65 0 c61 0 65 -2 65 -22 1 -25 8 -110
19 -228 l7 -75 7 130 c12 209 10 203 94 196 l43 -3 0 -195z m250 187 c26 -14
38 -62 33 -135 -5 -71 -21 -93 -75 -101 l-38 -7 0 -63 c0 -35 -3 -64 -7 -65
-5 0 -20 -3 -35 -5 l-28 -5 0 194 c0 107 2 196 5 199 9 9 124 -1 145 -12z
m143 -318 c16 -3 17 10 17 161 l0 165 36 4 c19 2 37 1 39 -2 2 -4 3 -82 2
-174 l-2 -168 -28 -24 c-39 -33 -99 -33 -132 1 -25 24 -25 27 -25 194 l0 170
33 3 32 3 5 -165 c4 -147 7 -165 23 -168z m197 321 c9 -10 40 -156 40 -188 0
-13 3 -26 8 -28 4 -3 5 46 4 109 -2 63 0 114 5 115 4 0 20 2 36 3 l27 2 0
-198 0 -198 -34 0 c-19 0 -38 5 -42 11 -10 17 -43 170 -44 202 0 15 -3 27 -7
27 -5 0 -7 -53 -5 -118 l3 -118 -35 0 -36 1 0 196 0 196 36 -3 c20 -1 40 -6
44 -11z m220 -72 c0 -95 12 -95 30 -1 18 86 17 85 52 84 18 -1 36 -2 39 -3 4
0 -6 -43 -22 -93 l-28 -93 23 -75 c42 -136 42 -130 -3 -130 l-40 0 -17 78
c-23 109 -34 111 -34 9 l0 -87 -35 0 -35 0 0 198 0 198 35 0 35 0 0 -85z m306
54 c17 -22 20 -295 4 -325 -13 -24 -62 -40 -121 -40 l-49 0 0 194 c0 127 4
196 11 198 5 2 40 1 76 -2 48 -4 69 -11 79 -25z m174 -6 c0 -26 -4 -29 -30
-29 -29 0 -30 -1 -30 -50 0 -48 1 -50 28 -50 24 0 28 -4 27 -27 0 -23 -5 -29
-27 -31 -26 -3 -28 -6 -28 -53 0 -48 1 -49 30 -49 28 0 30 -3 30 -35 l0 -35
-65 0 -65 0 0 198 0 197 65 -3 c64 -4 65 -4 65 -33z m80 22 c5 -11 13 -85 16
-165 4 -81 9 -144 11 -142 2 2 9 75 16 161 l12 159 34 2 34 3 -6 -72 c-8 -88
-25 -251 -32 -292 -5 -27 -9 -30 -48 -32 -23 -2 -47 1 -54 5 -6 4 -18 70 -28
157 -9 83 -18 166 -22 187 -4 30 -2 37 13 41 35 9 43 7 54 -12z m-1697 -51
c-14 -24 -24 -30 -50 -30 -37 0 -37 0 -21 35 9 20 18 25 50 25 l39 0 -18 -30z
m275 -472 c16 -24 36 -71 44 -106 15 -59 15 -63 0 -57 -10 4 -33 9 -52 11 -19
2 -55 8 -79 14 -24 6 -47 9 -52 8 -5 -2 5 -23 21 -47 17 -24 30 -49 30 -55 0
-8 -30 -10 -93 -8 l-93 3 63 -68 c64 -69 76 -87 46 -76 -18 7 -13 -7 16 -41
16 -18 15 -18 -16 -2 -18 9 -33 14 -33 11 0 -3 21 -28 47 -56 25 -27 44 -51
42 -52 -2 -2 -15 -9 -29 -15 -14 -7 -17 -10 -7 -7 16 4 18 1 12 -23 -5 -27 -5
-28 35 -24 22 2 52 1 67 -3 24 -6 26 -8 10 -16 -22 -13 -47 -61 -47 -91 0 -13
-7 -33 -15 -45 -33 -47 36 -193 90 -193 31 0 36 -9 40 -84 3 -44 -1 -70 -10
-82 -8 -11 -15 -25 -15 -31 0 -7 -9 -22 -20 -33 -11 -11 -20 -31 -20 -44 0
-13 -7 -26 -15 -30 -8 -3 -21 -18 -27 -33 -7 -15 -18 -35 -25 -44 -12 -14 -6
-25 41 -83 31 -37 57 -65 59 -64 2 2 18 -9 36 -24 18 -16 37 -28 43 -28 6 0 9
-3 5 -6 -11 -12 -82 38 -141 100 -37 38 -52 50 -41 31 10 -16 29 -42 43 -57
14 -16 22 -28 18 -28 -4 0 -21 15 -38 33 -21 22 -28 26 -23 12 4 -11 8 -26 8
-33 0 -12 108 -87 207 -145 43 -25 50 -26 105 -17 157 26 252 42 274 47 22 5
23 4 17 -21 -4 -18 -3 -25 4 -21 5 3 10 14 10 25 0 31 66 43 72 13 3 -10 5 0
6 22 1 22 4 51 5 64 4 25 132 191 148 191 6 0 8 3 6 8 -3 4 6 21 20 37 22 27
24 27 13 5 -8 -19 -2 -15 26 15 31 33 34 35 19 10 -10 -16 -51 -61 -92 -99
-40 -38 -73 -75 -73 -82 0 -8 -5 -14 -11 -14 -6 0 -9 -6 -6 -14 3 -8 -3 -22
-14 -32 -20 -18 -27 -40 -9 -29 13 8 13 -1 0 -26 -7 -13 -7 -19 0 -19 5 0 11
6 11 13 1 6 5 -1 9 -18 6 -22 8 -25 9 -9 0 12 8 27 17 35 13 10 17 10 25 -2 5
-8 9 -9 9 -2 0 6 14 21 30 33 38 27 39 12 3 -25 l-28 -28 40 7 c57 10 298 93
375 129 l65 31 -32 8 c-24 6 -35 17 -44 42 -8 22 -24 39 -46 50 -36 17 -53 44
-35 55 5 3 -16 24 -48 46 -48 33 -58 44 -54 62 5 17 -1 25 -28 39 -18 9 -47
29 -65 43 -28 22 -30 27 -15 32 11 4 36 -8 72 -35 62 -46 70 -55 65 -70 -2 -6
21 -31 51 -55 36 -27 53 -48 50 -57 -4 -10 7 -22 29 -35 22 -13 38 -33 46 -56
11 -35 12 -35 55 -30 l44 5 -18 -31 c-9 -16 -33 -40 -52 -53 -43 -29 -183 -81
-347 -130 -103 -31 -126 -42 -137 -62 l-13 -26 -8 23 c-11 35 -47 24 -62 -19
l-12 -35 -6 31 c-6 28 -10 31 -34 25 -17 -5 -27 -15 -29 -30 -2 -12 -10 -25
-19 -28 -8 -3 -19 -15 -23 -27 -7 -16 -9 -9 -9 28 l-1 49 -37 -7 c-21 -4 -81
-9 -133 -13 -52 -3 -106 -11 -119 -18 -22 -11 -34 -6 -133 59 -158 103 -251
169 -255 183 -2 6 5 14 17 18 18 6 20 12 15 50 -7 41 -6 43 36 71 25 17 54 50
70 79 34 61 35 68 9 60 -11 -3 -20 -2 -20 4 0 5 8 12 18 15 42 14 58 48 54
109 -3 51 -6 57 -26 57 -31 0 -63 37 -86 99 -21 55 -26 126 -10 136 6 3 10 22
10 41 0 28 6 38 33 54 l32 20 -43 0 c-40 0 -44 -3 -60 -37 l-17 -38 -3 48 c-2
26 -6 47 -10 47 -4 0 -18 -9 -32 -20 -14 -11 -28 -20 -33 -20 -13 0 23 74 49
101 21 22 24 31 15 47 -15 27 -86 85 -138 111 -24 12 -43 23 -43 25 0 2 35 -7
77 -20 42 -13 79 -22 81 -19 9 9 -72 98 -120 132 -26 19 -48 37 -48 40 0 3 33
2 72 -2 72 -7 73 -7 48 12 -14 10 -34 23 -45 29 -11 6 -22 19 -23 29 -3 12 13
6 59 -26 35 -24 79 -44 97 -46 l34 -4 -22 32 c-13 17 -41 44 -64 61 l-41 31
70 -7 c39 -4 81 -10 95 -13 21 -5 16 2 -25 40 -69 62 -53 68 22 8 33 -27 70
-52 83 -56 21 -7 22 -5 15 27 -4 18 -17 57 -30 86 -13 28 -22 52 -20 52 2 0
17 -19 33 -42z m90 -57 c20 -27 43 -57 49 -67 11 -16 12 -13 7 21 -4 22 -13
55 -20 74 -19 45 -11 50 14 9 23 -36 46 -124 37 -138 -11 -18 -54 13 -89 64
-19 28 -45 64 -57 80 l-23 29 22 -12 c12 -7 39 -34 60 -60z m201 0 c12 -37 14
-81 5 -105 -12 -33 -21 -14 -22 49 0 35 -4 75 -7 87 -11 37 11 8 24 -31z m-38
-15 c7 -34 9 -71 4 -102 -5 -27 -10 -41 -12 -31 -3 9 -9 15 -14 12 -5 -4 -9 5
-9 18 0 13 -11 46 -25 72 -13 27 -22 51 -20 53 4 4 41 -51 49 -73 9 -25 13 5
7 53 -10 68 4 67 20 -2z m131 -49 c21 18 21 18 16 -14 -5 -35 7 -46 16 -15 3
9 4 -5 3 -31 l-2 -48 27 33 c31 38 34 33 13 -19 -8 -20 -14 -38 -12 -39 2 -2
20 8 40 22 42 28 42 29 22 -20 -17 -41 -15 -43 21 -20 13 9 26 15 28 13 3 -2
-2 -21 -9 -43 l-13 -38 26 5 c15 3 36 9 47 13 17 7 16 2 -9 -30 -34 -45 -25
-60 33 -54 23 2 41 1 41 -3 0 -3 -13 -19 -30 -35 -37 -36 -37 -44 -2 -44 21 0
24 -2 12 -10 -8 -5 -26 -10 -40 -11 l-25 -1 28 -11 c33 -13 34 -20 2 -37 -29
-16 -32 -27 -7 -33 14 -3 11 -6 -11 -17 -20 -10 -24 -16 -15 -22 10 -6 10 -10
-2 -17 -10 -7 0 -12 38 -17 47 -6 57 -12 117 -75 36 -38 74 -69 84 -69 10 0
21 -7 24 -15 4 -8 21 -21 39 -28 18 -8 50 -31 70 -52 36 -37 37 -38 20 -61 -9
-13 -21 -24 -26 -24 -5 0 1 -11 14 -25 13 -14 20 -25 16 -25 -13 0 -86 40 -86
48 0 4 14 13 30 19 17 6 30 18 30 26 0 14 -95 83 -160 117 -14 7 -50 40 -80
73 -49 52 -60 60 -102 64 -41 5 -48 9 -57 34 -7 20 -7 29 1 29 6 0 8 13 6 31
-4 22 1 34 16 45 11 8 15 14 9 14 -23 0 -8 60 22 85 l30 24 -47 1 c-41 0 -48
3 -48 19 0 11 5 23 10 26 6 3 10 11 10 17 0 5 -16 1 -35 -11 -40 -23 -40 -23
-20 25 11 27 12 35 2 31 -58 -22 -59 -21 -43 17 17 42 15 43 -25 15 -30 -21
-34 -18 -30 24 1 9 -2 17 -7 17 -5 0 -7 15 -5 33 l4 32 -20 -25 c-18 -21 -20
-22 -15 -5 5 18 4 18 -6 2 -6 -9 -8 -22 -4 -29 4 -6 3 -8 -4 -4 -6 3 -13 -2
-16 -11 -3 -10 -3 3 0 30 3 27 1 47 -5 47 -5 0 -11 -5 -13 -11 -2 -6 -3 8 -3
30 0 23 3 41 7 41 5 0 8 -4 8 -10 0 -5 5 -10 10 -10 6 0 11 17 12 38 l1 37 4
-38 c4 -39 5 -39 25 -20z m-195 -109 c-3 -7 -5 -2 -5 12 0 14 2 19 5 13 2 -7
2 -19 0 -25z m136 2 c-3 -12 -8 -19 -11 -16 -5 6 5 36 12 36 2 0 2 -9 -1 -20z
m-341 -144 c10 -19 10 -20 -6 -7 -9 8 -22 24 -28 35 -10 19 -10 20 6 7 9 -8
22 -24 28 -35z m318 -86 c0 -3 18 -4 40 -4 34 2 39 0 29 -12 -10 -12 -8 -13
12 -6 27 10 53 -1 86 -37 25 -28 38 -75 17 -67 -7 3 -15 0 -18 -7 -2 -7 -5 -5
-5 5 -1 9 3 18 9 20 6 2 6 8 0 18 -8 13 -10 12 -10 -2 0 -10 -8 -18 -17 -19
-11 0 -13 -3 -5 -6 6 -2 12 -9 12 -14 0 -6 -4 -8 -9 -5 -5 4 -7 -3 -4 -15 4
-16 8 -17 14 -7 7 10 9 10 9 -2 0 -17 -55 -54 -80 -55 -8 0 -16 6 -16 13 -1 6
-2 16 -3 20 0 5 -8 9 -17 9 -15 0 -15 -1 -1 -12 13 -9 14 -14 4 -25 -9 -10 -9
-11 1 -6 14 8 17 -10 3 -19 -19 -11 -94 -17 -87 -7 3 6 1 14 -5 18 -8 4 -9 3
-5 -4 8 -14 -69 -36 -92 -27 -9 3 -14 3 -10 0 6 -6 -31 -50 -42 -50 -3 0 -10
-3 -16 -7 -28 -18 -84 14 -84 50 0 38 11 72 22 72 5 0 6 -4 3 -10 -3 -5 -2
-10 3 -10 5 0 12 13 15 28 12 58 147 195 175 178 5 -3 13 -1 20 3 13 8 52 9
52 1z m-334 -220 c-1 -34 -3 -38 -13 -24 -9 12 -9 22 -1 40 6 13 12 24 13 24
1 0 2 -18 1 -40z m574 0 c10 -23 9 -33 -5 -54 -21 -32 -30 -34 -14 -3 11 19
10 20 -2 10 -12 -10 -15 -7 -17 14 -2 22 0 24 13 13 22 -18 27 -8 9 19 l-16
22 -24 -22 c-18 -17 -23 -32 -22 -68 0 -37 2 -42 9 -23 5 13 13 20 19 17 6 -4
5 -12 -5 -21 -8 -9 -15 -20 -15 -26 0 -6 -7 -5 -17 3 -9 8 -14 9 -10 3 4 -7 0
-17 -9 -24 -8 -7 -13 -19 -10 -27 4 -9 -3 -13 -19 -13 -16 0 -25 6 -25 16 0 9
6 14 13 11 15 -5 37 45 37 88 0 23 10 42 35 68 39 40 57 40 75 -3z m-540 -43
c0 -5 -4 -5 -10 -2 -5 3 -10 14 -10 23 0 15 2 15 10 2 5 -8 10 -19 10 -23z
m420 20 c0 -2 -10 -12 -22 -23 l-23 -19 19 23 c18 21 26 27 26 19z m221 -38
c40 -41 37 -51 -4 -11 -18 18 -40 32 -49 32 -9 0 -20 5 -24 11 -15 24 48 -2
77 -32z m14 21 c3 -6 -1 -7 -9 -4 -18 7 -21 14 -7 14 6 0 13 -4 16 -10z m-326
-22 c0 -13 -3 -17 -6 -10 -2 6 -14 12 -26 11 -16 0 -18 -2 -7 -7 11 -5 14 -17
9 -47 l-6 -40 -2 38 c-1 43 -4 44 -89 18 -35 -11 -70 -17 -79 -14 -24 9 7 23
37 17 20 -5 22 -3 10 6 -12 9 -11 10 7 5 13 -3 40 2 65 13 85 38 88 38 87 10z
m-388 -2 c-13 -15 -1 -29 40 -45 l24 -10 -29 0 c-18 -1 -26 -5 -23 -13 2 -7 7
-24 11 -38 l7 -25 -15 25 c-20 32 -20 19 -2 -25 11 -24 21 -35 36 -35 12 0 18
-5 15 -10 -18 -29 -82 53 -70 90 4 11 2 20 -3 20 -6 0 -13 7 -16 16 -5 12 -1
14 17 9 21 -6 21 -5 3 9 -16 13 -17 18 -6 31 7 8 15 15 17 15 3 0 0 -6 -6 -14z
m416 -53 c-3 -10 -5 -4 -5 12 0 17 2 24 5 18 2 -7 2 -21 0 -30z m393 -40 c0
-8 8 -26 18 -40 9 -15 12 -24 5 -20 -7 4 -14 0 -17 -10 -4 -15 -5 -14 -4 2 2
33 -14 78 -40 115 l-24 35 31 -35 c17 -19 31 -40 31 -47z m-433 25 c-3 -7 -5
-2 -5 12 0 14 2 19 5 13 2 -7 2 -19 0 -25z m-227 8 c-11 -11 -23 -13 -50 -6
l-35 10 37 -5 c21 -2 40 1 43 6 4 5 9 9 13 9 3 0 0 -6 -8 -14z m410 -1 c0 -8
-4 -15 -10 -15 -5 0 -7 7 -4 15 4 8 8 15 10 15 2 0 4 -7 4 -15z m207 -57 c35
-72 55 -134 23 -74 -11 22 -20 47 -20 55 0 13 -2 13 -9 3 -5 -8 -2 -30 6 -53
9 -28 10 -45 3 -59 -13 -24 5 -37 25 -20 12 10 15 10 15 -1 0 -8 9 -4 23 9 13
12 33 22 45 22 27 0 92 26 92 36 0 4 -8 17 -17 28 -13 15 -10 14 10 -3 15 -14
27 -28 27 -32 0 -8 -86 -39 -110 -39 -10 0 -29 -9 -44 -21 -14 -11 -26 -17
-26 -14 0 4 -6 3 -12 -2 -9 -6 -21 -6 -35 2 -17 9 -19 15 -11 29 5 10 7 34 4
54 -4 21 -6 47 -6 59 0 12 -7 38 -16 58 -24 59 0 32 33 -37z m-534 7 c57 -29
59 -29 90 -12 l32 17 -24 -20 c-13 -11 -30 -20 -37 -20 -17 0 -134 58 -134 66
0 7 -3 8 73 -31z m296 -37 c1 7 6 10 11 7 16 -10 12 -152 -5 -186 -9 -16 -13
-35 -9 -41 4 -7 3 -8 -4 -4 -12 7 -10 90 3 139 8 30 -10 39 -19 10 -2 -10 -2
-1 1 20 3 20 3 37 0 37 -3 0 -19 -25 -36 -55 -20 -35 -36 -53 -43 -49 -8 5 -9
1 -4 -12 4 -10 4 -16 1 -12 -4 4 -19 -7 -33 -24 -58 -65 -62 -68 -96 -68 -33
0 -66 21 -66 41 0 6 6 9 13 8 30 -4 48 4 94 41 28 22 53 37 55 34 3 -3 18 10
33 28 16 18 32 32 36 31 5 -2 4 9 -1 23 -13 32 -12 37 0 29 6 -3 10 -1 10 5 0
6 4 9 8 6 4 -2 14 -1 22 4 11 7 17 4 22 -8 4 -10 7 -11 7 -4z m-324 -48 c-3
-4 4 -10 15 -13 11 -3 20 -1 20 4 0 17 18 9 35 -17 20 -31 11 -46 -11 -18 -14
18 -15 18 -8 -5 6 -21 4 -23 -20 -19 -14 3 -26 1 -26 -3 0 -5 -9 -9 -19 -9
-25 0 -35 27 -14 39 14 7 11 11 -15 25 -36 19 -36 19 -20 45 11 18 12 18 39
-2 16 -11 26 -23 24 -27z m145 -29 c0 -7 -6 -11 -14 -8 -7 3 -18 1 -24 -5 -7
-7 -14 -3 -22 12 -15 27 -6 37 17 19 15 -11 16 -11 6 1 -22 24 -14 32 12 13
13 -10 25 -24 25 -32z m55 18 c-5 -22 -4 -29 4 -25 17 11 13 0 -6 -15 -11 -10
-14 -10 -9 -1 12 21 -7 13 -35 -14 -15 -14 -32 -23 -38 -20 -17 11 -13 28 6
24 18 -3 53 24 53 42 0 6 5 10 10 10 6 0 10 7 10 15 0 8 3 15 6 15 3 0 3 -14
-1 -31z m422 -16 c-3 -10 -5 -4 -5 12 0 17 2 24 5 18 2 -7 2 -21 0 -30z m-242
-63 c-9 -61 -23 -30 -17 40 4 48 6 52 14 30 5 -14 6 -45 3 -70z m-458 -7 l1
-88 -8 65 c-7 53 -5 110 4 110 1 0 2 -39 3 -87z m175 -5 c-15 -15 -26 -4 -18
18 5 13 9 15 18 6 9 -9 9 -15 0 -24z m325 10 c-3 -8 -6 -5 -6 6 -1 11 2 17 5
13 3 -3 4 -12 1 -19z m-357 -13 c0 -8 -6 -15 -14 -15 -8 0 -21 -3 -30 -6 -11
-4 -16 0 -16 12 0 16 2 17 10 4 8 -13 10 -12 10 3 0 10 8 17 20 17 11 0 20 -7
20 -15z m463 -8 c-4 -7 -8 -14 -8 -17 0 -3 -8 -16 -18 -30 -15 -22 -22 -21
-18 3 0 4 -3 7 -8 7 -6 0 -9 -9 -8 -20 1 -22 26 -27 45 -8 7 7 12 10 12 7 0
-3 -14 -18 -32 -35 -17 -16 -29 -22 -25 -13 3 10 0 16 -9 16 -11 0 -13 -8 -9
-31 4 -24 3 -27 -4 -11 -18 39 -11 63 32 107 23 24 45 43 50 40 4 -2 4 -9 0
-15z m-533 3 c0 -5 -2 -10 -4 -10 -3 0 -8 5 -11 10 -3 6 -1 10 4 10 6 0 11 -4
11 -10z m585 -40 c10 -46 0 -36 -14 14 -5 22 -6 35 -2 30 5 -5 12 -25 16 -44z
m145 20 c0 -5 -2 -10 -4 -10 -3 0 -8 5 -11 10 -3 6 -1 10 4 10 6 0 11 -4 11
-10z m70 -48 c0 -4 -9 -18 -20 -32 -19 -24 -19 -24 -13 -2 3 12 10 22 15 22 6
0 7 7 4 16 -3 8 -2 12 4 9 6 -3 10 -9 10 -13z m-870 -57 c24 -60 21 -75 -5
-25 -8 16 -15 38 -15 50 0 12 -4 18 -10 15 -11 -7 -14 8 -3 19 4 4 12 -3 17
-16 4 -13 12 -32 16 -43z m486 20 c-1 -8 -5 -17 -8 -21 -5 -4 -4 16 1 34 3 9
9 -1 7 -13z m136 -97 c-61 -62 -89 -85 -85 -69 3 13 27 38 52 56 26 19 62 52
80 75 18 23 36 39 39 35 3 -3 -35 -47 -86 -97z m306 57 c23 -16 40 -34 38 -40
-6 -19 13 -55 30 -55 30 0 5 -13 -26 -14 -30 -1 -30 -1 -24 42 3 23 2 42 -2
42 -5 1 -27 17 -49 36 -44 40 -31 35 33 -11z m-976 16 c-11 -6 -6 -23 22 -79
20 -39 36 -75 36 -79 -1 -5 -16 21 -35 57 -19 36 -34 57 -35 48 0 -9 -7 -23
-15 -32 -10 -9 -11 -17 -5 -21 6 -3 17 -21 25 -38 9 -18 10 -23 3 -13 -7 11
-22 29 -33 40 -18 19 -20 19 -23 4 -2 -10 8 -33 22 -51 14 -19 26 -38 26 -42
0 -5 7 -17 17 -27 9 -10 14 -21 10 -24 -3 -3 -18 14 -33 38 -15 23 -36 55 -46
71 -15 21 -16 31 -8 47 6 11 17 20 26 20 16 0 38 46 28 61 -7 12 4 29 19 29 8
0 8 -3 -1 -9z m492 -6 c-10 -8 -14 -15 -8 -15 7 0 15 -7 18 -16 4 -9 2 -13 -5
-8 -6 3 -25 -4 -41 -16 -18 -13 -46 -23 -69 -24 -20 0 -36 -4 -33 -7 6 -10
-43 -17 -57 -9 -16 11 -1 32 19 27 10 -2 41 7 70 19 29 13 50 19 47 14 -9 -15
9 -12 31 5 19 15 19 15 -1 8 -17 -5 -16 -3 5 15 14 12 29 21 34 22 6 0 1 -7
-10 -15z m336 -19 c0 -2 -8 -10 -17 -17 -16 -13 -17 -12 -4 4 13 16 21 21 21
13z m64 -61 c-9 -14 -24 -25 -33 -25 -11 1 -7 8 14 25 37 31 39 31 19 0z m86
-15 c0 -5 -7 -7 -15 -4 -8 4 -12 10 -9 15 6 11 24 2 24 -11z m-860 -35 c38
-19 38 -23 1 -17 -16 2 -32 10 -35 18 -7 18 -2 18 34 -1z m453 -7 c-4 -7 -8
-17 -8 -23 0 -14 -69 -58 -73 -46 -2 6 -13 4 -28 -5 -13 -9 -22 -19 -19 -23 6
-10 -173 -97 -181 -88 -4 4 0 7 9 7 8 0 22 7 31 15 8 8 32 21 53 28 21 7 37
17 36 23 -1 5 23 24 53 41 30 18 52 28 49 23 -3 -6 0 -10 7 -10 7 0 26 16 41
35 27 34 47 48 30 23z m447 -8 c-8 -5 -24 -9 -35 -9 l-20 0 20 9 c11 5 27 9
35 9 13 1 13 0 0 -9z m80 -4 c0 -7 10 -26 22 -42 17 -21 19 -26 6 -21 -9 3
-19 1 -22 -6 -3 -7 -5 -6 -4 3 1 18 -12 70 -18 70 -3 0 -37 -15 -77 -34 -99
-47 -177 -77 -177 -68 0 4 33 20 73 35 39 15 95 39 122 52 57 28 75 31 75 11z
m-1007 -19 c3 -8 -1 -14 -8 -14 -7 0 -11 6 -8 14 3 7 6 13 8 13 2 0 5 -6 8
-13z m292 -7 c-3 -5 -13 -10 -21 -10 -8 0 -31 -9 -51 -20 -20 -10 -40 -17 -45
-14 -5 3 -26 3 -46 -1 -31 -6 -34 -9 -17 -15 15 -6 7 -9 -27 -9 -36 -1 -53 5
-75 24 -15 13 -23 25 -16 25 6 0 15 -5 19 -11 4 -8 9 -7 14 2 7 10 11 9 23 -3
14 -14 24 -13 99 3 46 10 97 23 113 28 17 5 31 10 33 10 2 1 0 -3 -3 -9z m681
-5 c-11 -8 -22 -12 -25 -9 -6 6 19 24 34 24 6 -1 1 -7 -9 -15z m-809 -51 c-3
-3 -12 -4 -19 -1 -8 3 -5 6 6 6 11 1 17 -2 13 -5z m543 -38 c0 -3 -4 -8 -10
-11 -5 -3 -10 -1 -10 4 0 6 5 11 10 11 6 0 10 -2 10 -4z m-500 -110 c0 -2 -7
-7 -16 -10 -8 -3 -12 -2 -9 4 6 10 25 14 25 6z m-85 -36 c3 -5 -1 -10 -9 -10
-9 0 -16 5 -16 10 0 6 4 10 9 10 6 0 13 -4 16 -10z"/>
<path d="M345 2169 c-10 -15 3 -25 16 -12 7 7 7 13 1 17 -6 3 -14 1 -17 -5z"/>
<path d="M515 2169 c-9 -14 -2 -20 14 -10 8 6 9 11 3 15 -6 3 -14 1 -17 -5z"/>
<path d="M535 2130 c-3 -5 -1 -10 4 -10 6 0 11 5 11 10 0 6 -2 10 -4 10 -3 0
-8 -4 -11 -10z"/>
<path d="M944 1962 c1 -17 19 -17 24 0 3 10 1 10 -6 -1 -9 -12 -11 -12 -14 0
-3 9 -5 10 -4 1z"/>
<path d="M1220 2271 c0 -5 -3 -17 -7 -27 -4 -11 -2 -15 7 -12 16 5 22 36 9 44
-5 3 -9 1 -9 -5z"/>
<path d="M1160 2181 c0 -43 4 -60 15 -65 22 -8 30 16 27 73 -3 42 -7 51 -23
51 -17 0 -19 -8 -19 -59z"/>
<path d="M1122 2181 c13 -22 28 -28 28 -11 0 5 -9 14 -20 20 -19 10 -20 10 -8
-9z"/>
<path d="M1580 2190 c0 -5 5 -10 11 -10 5 0 7 5 4 10 -3 6 -8 10 -11 10 -2 0
-4 -4 -4 -10z"/>
<path d="M1640 2190 c0 -5 7 -10 15 -10 8 0 15 5 15 10 0 6 -7 10 -15 10 -8 0
-15 -4 -15 -10z"/>
<path d="M1665 2161 c-3 -5 -1 -12 5 -16 5 -3 10 1 10 9 0 18 -6 21 -15 7z"/>
<path d="M2010 2110 c0 -123 1 -130 20 -130 19 0 20 7 20 130 0 123 -1 130
-20 130 -19 0 -20 -7 -20 -130z"/>
<path d="M2162 2155 c1 -38 9 -43 28 -20 10 12 9 15 -5 15 -12 0 -16 6 -12 20
3 11 1 20 -4 20 -4 0 -8 -16 -7 -35z"/>
<path d="M2191 2101 c-8 -5 -9 -11 -3 -15 5 -3 12 1 16 9 6 17 6 18 -13 6z"/>
<path d="M2234 1952 c3 -5 0 -13 -6 -15 -9 -4 -10 -6 -1 -6 17 -1 25 16 12 25
-7 4 -9 3 -5 -4z"/>
<path d="M2326 2175 c4 -9 11 -14 16 -13 15 5 11 23 -6 26 -11 2 -14 -2 -10
-13z"/>
<path d="M828 459 c-20 -11 -24 -54 -8 -64 7 -4 9 2 5 18 -5 19 -1 29 16 41
26 17 15 22 -13 5z"/>
<path d="M810 355 c-10 -12 -8 -18 11 -35 31 -25 43 -25 29 0 -6 10 -9 24 -8
31 5 18 -18 21 -32 4z"/>
<path d="M1579 293 c-13 -16 -12 -17 4 -4 16 13 21 21 13 21 -2 0 -10 -8 -17
-17z"/>
<path d="M1440 138 c0 -15 5 -30 10 -33 13 -8 13 25 0 45 -8 12 -10 9 -10 -12z"/>
<path d="M1340 1150 c-8 -5 -10 -10 -5 -10 6 0 17 5 25 10 8 5 11 10 5 10 -5
0 -17 -5 -25 -10z"/>
<path d="M1134 1084 c-18 -14 -18 -15 4 -4 12 6 22 13 22 15 0 8 -5 6 -26 -11z"/>
<path d="M1173 691 c-18 -9 -33 -23 -33 -31 0 -10 3 -11 8 -4 4 6 22 19 40 28
17 9 32 19 32 21 0 7 -12 4 -47 -14z"/>
<path d="M1580 690 c-9 -6 -10 -10 -3 -10 6 0 15 5 18 10 8 12 4 12 -15 0z"/>
<path d="M1350 524 l-25 -15 25 7 c14 3 29 10 35 15 15 14 -7 10 -35 -7z"/>
</g>
</svg>
